<mxfile host="app.diagrams.net" modified="2024-06-15T11:32:26.915Z" agent="Mozilla/5.0 (Windows NT 10.0; Win64; x64) AppleWebKit/537.36 (KHTML, like Gecko) Chrome/125.0.0.0 Safari/537.36" etag="3-usEjOAGNJXtxkBJv-W" version="24.5.4" type="github">
  <diagram id="C5RBs43oDa-KdzZeNtuy" name="Page-1">
    <mxGraphModel dx="1434" dy="746" grid="1" gridSize="10" guides="1" tooltips="1" connect="1" arrows="1" fold="1" page="1" pageScale="1" pageWidth="827" pageHeight="1169" math="0" shadow="0">
      <root>
        <mxCell id="WIyWlLk6GJQsqaUBKTNV-0" />
        <mxCell id="WIyWlLk6GJQsqaUBKTNV-1" parent="WIyWlLk6GJQsqaUBKTNV-0" />
        <mxCell id="mazjEKwhI1Ldb9aRtVdK-25" value="需求分析" style="whiteSpace=wrap;strokeWidth=2;" vertex="1" parent="WIyWlLk6GJQsqaUBKTNV-1">
          <mxGeometry x="253" y="80" width="80" height="34" as="geometry" />
        </mxCell>
        <mxCell id="mazjEKwhI1Ldb9aRtVdK-26" value="数据源识别" style="whiteSpace=wrap;strokeWidth=2;" vertex="1" parent="WIyWlLk6GJQsqaUBKTNV-1">
          <mxGeometry x="245" y="183" width="96" height="34" as="geometry" />
        </mxCell>
        <mxCell id="mazjEKwhI1Ldb9aRtVdK-27" value="数据清洗" style="whiteSpace=wrap;strokeWidth=2;" vertex="1" parent="WIyWlLk6GJQsqaUBKTNV-1">
          <mxGeometry x="253" y="286" width="81" height="34" as="geometry" />
        </mxCell>
        <mxCell id="mazjEKwhI1Ldb9aRtVdK-28" value="数据建模" style="whiteSpace=wrap;strokeWidth=2;" vertex="1" parent="WIyWlLk6GJQsqaUBKTNV-1">
          <mxGeometry x="253" y="389" width="81" height="34" as="geometry" />
        </mxCell>
        <mxCell id="mazjEKwhI1Ldb9aRtVdK-29" value="定义索引（Index）" style="whiteSpace=wrap;strokeWidth=2;" vertex="1" parent="WIyWlLk6GJQsqaUBKTNV-1">
          <mxGeometry x="20" y="492" width="151" height="34" as="geometry" />
        </mxCell>
        <mxCell id="mazjEKwhI1Ldb9aRtVdK-30" value="定义类型（Type）" style="whiteSpace=wrap;strokeWidth=2;" vertex="1" parent="WIyWlLk6GJQsqaUBKTNV-1">
          <mxGeometry x="221" y="492" width="145" height="34" as="geometry" />
        </mxCell>
        <mxCell id="mazjEKwhI1Ldb9aRtVdK-31" value="定义字段（Field）" style="whiteSpace=wrap;strokeWidth=2;" vertex="1" parent="WIyWlLk6GJQsqaUBKTNV-1">
          <mxGeometry x="416" y="492" width="147" height="34" as="geometry" />
        </mxCell>
        <mxCell id="mazjEKwhI1Ldb9aRtVdK-32" value="映射设置" style="whiteSpace=wrap;strokeWidth=2;" vertex="1" parent="WIyWlLk6GJQsqaUBKTNV-1">
          <mxGeometry x="253" y="595" width="80" height="34" as="geometry" />
        </mxCell>
        <mxCell id="mazjEKwhI1Ldb9aRtVdK-33" value="数据导入" style="whiteSpace=wrap;strokeWidth=2;" vertex="1" parent="WIyWlLk6GJQsqaUBKTNV-1">
          <mxGeometry x="253" y="698" width="80" height="34" as="geometry" />
        </mxCell>
        <mxCell id="mazjEKwhI1Ldb9aRtVdK-34" value="数据验证" style="whiteSpace=wrap;strokeWidth=2;" vertex="1" parent="WIyWlLk6GJQsqaUBKTNV-1">
          <mxGeometry x="253" y="801" width="81" height="34" as="geometry" />
        </mxCell>
        <mxCell id="mazjEKwhI1Ldb9aRtVdK-35" value="查询优化" style="whiteSpace=wrap;strokeWidth=2;" vertex="1" parent="WIyWlLk6GJQsqaUBKTNV-1">
          <mxGeometry x="253" y="904" width="81" height="34" as="geometry" />
        </mxCell>
        <mxCell id="mazjEKwhI1Ldb9aRtVdK-36" value="监控和维护" style="whiteSpace=wrap;strokeWidth=2;" vertex="1" parent="WIyWlLk6GJQsqaUBKTNV-1">
          <mxGeometry x="246" y="1007" width="95" height="34" as="geometry" />
        </mxCell>
        <mxCell id="mazjEKwhI1Ldb9aRtVdK-37" value="需求文档" style="curved=1;startArrow=none;endArrow=block;exitX=0.5;exitY=1;entryX=0.5;entryY=0;rounded=0;" edge="1" parent="WIyWlLk6GJQsqaUBKTNV-1" source="mazjEKwhI1Ldb9aRtVdK-25" target="mazjEKwhI1Ldb9aRtVdK-26">
          <mxGeometry relative="1" as="geometry">
            <Array as="points" />
          </mxGeometry>
        </mxCell>
        <mxCell id="mazjEKwhI1Ldb9aRtVdK-38" value="数据源列表" style="curved=1;startArrow=none;endArrow=block;exitX=0.5;exitY=1;entryX=0.5;entryY=0;rounded=0;" edge="1" parent="WIyWlLk6GJQsqaUBKTNV-1" source="mazjEKwhI1Ldb9aRtVdK-26" target="mazjEKwhI1Ldb9aRtVdK-27">
          <mxGeometry relative="1" as="geometry">
            <Array as="points" />
          </mxGeometry>
        </mxCell>
        <mxCell id="mazjEKwhI1Ldb9aRtVdK-39" value="清洗后的数据" style="curved=1;startArrow=none;endArrow=block;exitX=0.5;exitY=1;entryX=0.5;entryY=0;rounded=0;" edge="1" parent="WIyWlLk6GJQsqaUBKTNV-1" source="mazjEKwhI1Ldb9aRtVdK-27" target="mazjEKwhI1Ldb9aRtVdK-28">
          <mxGeometry relative="1" as="geometry">
            <Array as="points" />
          </mxGeometry>
        </mxCell>
        <mxCell id="mazjEKwhI1Ldb9aRtVdK-40" value="数据模型" style="curved=1;startArrow=none;endArrow=block;exitX=0;exitY=0.81;entryX=0.5;entryY=0;rounded=0;" edge="1" parent="WIyWlLk6GJQsqaUBKTNV-1" source="mazjEKwhI1Ldb9aRtVdK-28" target="mazjEKwhI1Ldb9aRtVdK-29">
          <mxGeometry relative="1" as="geometry">
            <Array as="points">
              <mxPoint x="95" y="458" />
            </Array>
          </mxGeometry>
        </mxCell>
        <mxCell id="mazjEKwhI1Ldb9aRtVdK-41" value="数据模型" style="curved=1;startArrow=none;endArrow=block;exitX=0.5;exitY=1;entryX=0.5;entryY=0;rounded=0;" edge="1" parent="WIyWlLk6GJQsqaUBKTNV-1" source="mazjEKwhI1Ldb9aRtVdK-28" target="mazjEKwhI1Ldb9aRtVdK-30">
          <mxGeometry relative="1" as="geometry">
            <Array as="points" />
          </mxGeometry>
        </mxCell>
        <mxCell id="mazjEKwhI1Ldb9aRtVdK-42" value="数据模型" style="curved=1;startArrow=none;endArrow=block;exitX=1;exitY=0.81;entryX=0.5;entryY=0;rounded=0;" edge="1" parent="WIyWlLk6GJQsqaUBKTNV-1" source="mazjEKwhI1Ldb9aRtVdK-28" target="mazjEKwhI1Ldb9aRtVdK-31">
          <mxGeometry relative="1" as="geometry">
            <Array as="points">
              <mxPoint x="490" y="458" />
            </Array>
          </mxGeometry>
        </mxCell>
        <mxCell id="mazjEKwhI1Ldb9aRtVdK-43" value="索引设置" style="curved=1;startArrow=none;endArrow=block;exitX=0.5;exitY=1;entryX=0;entryY=0.19;rounded=0;" edge="1" parent="WIyWlLk6GJQsqaUBKTNV-1" source="mazjEKwhI1Ldb9aRtVdK-29" target="mazjEKwhI1Ldb9aRtVdK-32">
          <mxGeometry relative="1" as="geometry">
            <Array as="points">
              <mxPoint x="95" y="561" />
            </Array>
          </mxGeometry>
        </mxCell>
        <mxCell id="mazjEKwhI1Ldb9aRtVdK-44" value="类型设置" style="curved=1;startArrow=none;endArrow=block;exitX=0.5;exitY=1;entryX=0.5;entryY=0;rounded=0;" edge="1" parent="WIyWlLk6GJQsqaUBKTNV-1" source="mazjEKwhI1Ldb9aRtVdK-30" target="mazjEKwhI1Ldb9aRtVdK-32">
          <mxGeometry relative="1" as="geometry">
            <Array as="points" />
          </mxGeometry>
        </mxCell>
        <mxCell id="mazjEKwhI1Ldb9aRtVdK-45" value="字段设置" style="curved=1;startArrow=none;endArrow=block;exitX=0.5;exitY=1;entryX=1;entryY=0.19;rounded=0;" edge="1" parent="WIyWlLk6GJQsqaUBKTNV-1" source="mazjEKwhI1Ldb9aRtVdK-31" target="mazjEKwhI1Ldb9aRtVdK-32">
          <mxGeometry relative="1" as="geometry">
            <Array as="points">
              <mxPoint x="490" y="561" />
            </Array>
          </mxGeometry>
        </mxCell>
        <mxCell id="mazjEKwhI1Ldb9aRtVdK-46" value="映射规则" style="curved=1;startArrow=none;endArrow=block;exitX=0.5;exitY=1;entryX=0.5;entryY=0;rounded=0;" edge="1" parent="WIyWlLk6GJQsqaUBKTNV-1" source="mazjEKwhI1Ldb9aRtVdK-32" target="mazjEKwhI1Ldb9aRtVdK-33">
          <mxGeometry relative="1" as="geometry">
            <Array as="points" />
          </mxGeometry>
        </mxCell>
        <mxCell id="mazjEKwhI1Ldb9aRtVdK-47" value="索引数据" style="curved=1;startArrow=none;endArrow=block;exitX=0.5;exitY=1;entryX=0.5;entryY=0;rounded=0;" edge="1" parent="WIyWlLk6GJQsqaUBKTNV-1" source="mazjEKwhI1Ldb9aRtVdK-33" target="mazjEKwhI1Ldb9aRtVdK-34">
          <mxGeometry relative="1" as="geometry">
            <Array as="points" />
          </mxGeometry>
        </mxCell>
        <mxCell id="mazjEKwhI1Ldb9aRtVdK-48" value="验证报告" style="curved=1;startArrow=none;endArrow=block;exitX=0.5;exitY=1;entryX=0.5;entryY=0;rounded=0;" edge="1" parent="WIyWlLk6GJQsqaUBKTNV-1" source="mazjEKwhI1Ldb9aRtVdK-34" target="mazjEKwhI1Ldb9aRtVdK-35">
          <mxGeometry relative="1" as="geometry">
            <Array as="points" />
          </mxGeometry>
        </mxCell>
        <mxCell id="mazjEKwhI1Ldb9aRtVdK-49" value="优化的查询模板" style="curved=1;startArrow=none;endArrow=block;exitX=0.5;exitY=1;entryX=0.5;entryY=0;rounded=0;" edge="1" parent="WIyWlLk6GJQsqaUBKTNV-1" source="mazjEKwhI1Ldb9aRtVdK-35" target="mazjEKwhI1Ldb9aRtVdK-36">
          <mxGeometry relative="1" as="geometry">
            <Array as="points" />
          </mxGeometry>
        </mxCell>
      </root>
    </mxGraphModel>
  </diagram>
</mxfile>
